<svg id="Layer_1" data-name="Layer 1" xmlns="http://www.w3.org/2000/svg" viewBox="0 0 14 14"><path d="M9.23,6.85a4,4,0,0,0-1.42-.79l-.46-.13H7.29c-1.14-.3-1.14-.67-1.14-1a.91.91,0,0,1,.94-.83H7.2a2,2,0,0,1,1.19.35L9.12,5l1-1.53L9.42,3A3.75,3.75,0,0,0,8,2.37V1H6.24V2.44a2.63,2.63,0,0,0-1.9,2.49A2.49,2.49,0,0,0,5,6.71a3.67,3.67,0,0,0,1.48.85L7,7.7c1.25.33,1.25.8,1.25,1a1.06,1.06,0,0,1-1,1H7.08a2.83,2.83,0,0,1-1.49-.36L4.88,9l-1,1.51.74.44a4,4,0,0,0,1.58.56V13H8V11.37A2.79,2.79,0,0,0,10,8.7a2.52,2.52,0,0,0-.8-1.85Z"/></svg>