<svg id="Layer_1" data-name="Layer 1" xmlns="http://www.w3.org/2000/svg" viewBox="0 0 22 22"><path d="M14.72,10.74a6.4,6.4,0,0,0-2.38-1.3l-.75-.23h-.1c-1.9-.49-1.9-1.12-1.9-1.68a1.52,1.52,0,0,1,1.56-1.38h.18a3.39,3.39,0,0,1,2,.58l1.21.87L16.13,5,15,4.27a6.17,6.17,0,0,0-2.3-1V1h-3V3.4A4.38,4.38,0,0,0,6.57,7.54a4.2,4.2,0,0,0,1.12,3,6.08,6.08,0,0,0,2.47,1.41l.8.23c2.09.56,2.09,1.34,2.09,1.67a1.77,1.77,0,0,1-1.72,1.72h-.19a4.73,4.73,0,0,1-2.5-.6l-1.17-.7-1.6,2.51,1.23.75a6.89,6.89,0,0,0,2.63.93V21h3V18.28a4.63,4.63,0,0,0,3.32-4.45,4.18,4.18,0,0,0-1.33-3.08Z"/></svg>