<svg id="Layer_1" data-name="Layer 1" xmlns="http://www.w3.org/2000/svg" viewBox="0 0 22 22"><path d="M15.38,7.07V8.13a.45.45,0,0,1-.45.45H13.87a.45.45,0,0,1-.45-.45V7.07a.45.45,0,0,1,.45-.45h1.06A.46.46,0,0,1,15.38,7.07ZM11,13.24A2.24,2.24,0,1,0,8.76,11,2.24,2.24,0,0,0,11,13.24Zm3.55-2.74a4,4,0,0,1,0,.5,3.59,3.59,0,0,1-7.18,0,4,4,0,0,1,0-.5,2.46,2.46,0,0,1,.1-.47H6.62v4.9a.45.45,0,0,0,.45.45h7.86a.45.45,0,0,0,.44-.45V10h-.92A3.56,3.56,0,0,1,14.55,10.5ZM21,11A10,10,0,1,1,11,1,10,10,0,0,1,21,11ZM16.83,6.51a1.34,1.34,0,0,0-1.34-1.34h-9A1.34,1.34,0,0,0,5.17,6.51v9a1.34,1.34,0,0,0,1.34,1.34h9a1.34,1.34,0,0,0,1.34-1.34Z"/></svg>