<svg id="Layer_1" data-name="Layer 1" xmlns="http://www.w3.org/2000/svg" viewBox="0 0 65 65"><title>cfi_logo_clean</title><path class="tmp-cfi-logo-path" d="M39.87993,29.592a6.36158,6.36158,0,0,1,2.34382-5.434q3.20838-2.3651,11.62967-2.36477V12.85318c-15.38956,0-23.42231,5.58435-23.42231,16.755l.08612,5.15431c-.0025.3012.01408.77648.01408.93041,0,4.67237-.419,9.77162-3.60338,13.47474a14.96725,14.96725,0,0,1-9.93588,4.64917c-.26182.02394-3.20551.23546-3.20491.16012l.04671-5.9091L13.92072,37.08c.0402-5.08427.208-10.21191,2.06189-15.02421a16.13173,16.13173,0,0,1,4.47331-6.64718,17.1985,17.1985,0,0,1,10.03864-4.03523c1.67316-.11445,3.35068-.16716,5.026-.23931L40.87561.68757S26.52543-1.02691,16.31686,5.911c-10.10215,6.86931-12.7996,14.4996-13.321,20.89878-.52268,6.39761,0,37.48667,0,37.48667,2.82974,0,5.65926.03937,8.48863.08105a53.105,53.105,0,0,0,7.82388-.17976,26.54415,26.54415,0,0,0,9.48024-3.101c.23655-.13351.47125-.271.6986-.41975,3.63528-2.37847,6.982-5.73412,8.33121-9.94351A51.1943,51.1943,0,0,0,39.73,40.02391l.15-.09H48.8627v-8.9398H39.87993Z"/><polygon class="tmp-cfi-logo-path" points="52.523 40.578 52.523 64.5 62.166 64.5 62.166 36.068 52.523 40.578"/></svg>