<?xml version="1.0" encoding="utf-8"?>
<!-- Generator: Adobe Illustrator 22.0.1, SVG Export Plug-In . SVG Version: 6.00 Build 0)  -->
<svg version="1.1" id="Layer_1" xmlns="http://www.w3.org/2000/svg" xmlns:xlink="http://www.w3.org/1999/xlink" x="0px" y="0px"
   viewBox="0 0 251.8 69.4" enable-background="new 0 0 251.8 69.4" xml:space="preserve">
<g enable-background="new    ">
  <path d="M5.3,5.1v-1h5.4c2,0,4,0,6-0.1c2-0.1,4-0.1,6-0.1c1.8,0,3.6,0.1,5.6,0.4c2,0.3,3.9,0.8,5.8,1.5
    c1.9,0.7,3.8,1.7,5.5,2.9c1.7,1.2,3.3,2.8,4.6,4.6c1.3,1.9,2.4,4.1,3.2,6.7c0.8,2.6,1.2,5.6,1.2,9.1c0,3.4-0.4,6.4-1.2,9
    c-0.8,2.6-1.8,4.8-3.2,6.7c-1.3,1.9-2.8,3.4-4.5,4.6c-1.7,1.2-3.4,2.2-5.3,2.9c-1.8,0.7-3.6,1.2-5.4,1.5c-1.8,0.3-3.4,0.4-5,0.4
    c-2.2,0-4.5,0-6.7-0.1c-2.2,0-4.5-0.1-6.7-0.1H5.3v-1h5.4v-48H5.3z M22.4,53.3c2.6,0,4.7-0.4,6.5-1.1c1.8-0.7,3.3-1.7,4.6-2.9
    c1.2-1.2,2.2-2.7,2.9-4.2c0.7-1.6,1.3-3.3,1.7-5c0.4-1.8,0.6-3.5,0.7-5.3c0.1-1.8,0.2-3.4,0.2-4.9c0-3.8-0.2-7.2-0.6-10.3
    c-0.4-3.1-1.2-5.7-2.3-7.9c-1.2-2.2-2.8-3.8-4.9-5c-2.1-1.2-4.9-1.8-8.3-1.8c-0.8,0-1.5,0-2.1,0c-0.6,0-1.1,0.1-1.5,0.2v48
    C20.4,53.2,21.5,53.3,22.4,53.3z"/>
</g>
<g enable-background="new    ">
  <path d="M49.4,53.1L67,2.1h1.6l18.6,51h5.1v1H72.4v-1h5.5l-6.8-18.8H56.9l-6.5,18.8h5.2v1H44.5v-1H49.4z M57.2,33.3
    h13.6l-7-19.2L57.2,33.3z"/>
</g>
<g enable-background="new    ">
  <path d="M100.9,4.1v1h-4.7l12,24.5l10.8-24.5H114v-1h11.3v1h-5.1l-11.4,25.8v22.2h5.5v1H94.8v-1h5.4V33.5L86.5,5.1
    h-4.6v-1H100.9z"/>
</g>
<g enable-background="new    ">
  <path d="M134,5.1c-1.5,0-2.8,0.2-3.9,0.5c-1.1,0.4-2.2,1-3.1,1.8c-0.9,0.9-1.7,2.1-2.4,3.6
    c-0.7,1.5-1.4,3.5-1.9,5.9H122V4.1h37v12.8h-0.8c-0.6-2.4-1.2-4.4-1.9-5.9c-0.7-1.5-1.5-2.7-2.4-3.6c-0.9-0.9-1.9-1.5-3.1-1.8
    c-1.1-0.4-2.4-0.5-3.9-0.5h-2.1v48h5.4v1h-19.4v-1h5.4v-48H134z"/>
</g>
<g enable-background="new    ">
  <path d="M162.2,18.4c1.4-3.2,3.1-6,5.2-8.3c2.1-2.3,4.5-4.1,7.1-5.3c2.6-1.2,5.2-1.9,7.7-1.9c2.7,0,5.4,0.6,8,1.8
    c2.7,1.2,5,2.9,7.1,5.2c2.1,2.2,3.7,5,5,8.2c1.3,3.2,1.9,6.8,1.9,10.8c0,3.5-0.6,6.8-1.8,10c-1.2,3.2-2.8,5.9-4.8,8.3
    c-2,2.4-4.4,4.3-7,5.7c-2.7,1.4-5.5,2.1-8.4,2.1c-2.9,0-5.7-0.7-8.4-2c-2.7-1.3-5-3.2-7-5.5c-2-2.3-3.6-5-4.9-8.2
    c-1.2-3.1-1.8-6.5-1.8-10.2C160.1,25.2,160.8,21.6,162.2,18.4z M170.4,41.3c0.5,3.2,1.2,5.8,2.2,7.7c1,1.9,2.3,3.2,3.9,4
    c1.6,0.7,3.5,1.1,5.7,1.1c2.9,0,5.2-0.6,6.8-1.9c1.7-1.3,2.9-3.1,3.7-5.3c0.8-2.3,1.3-5,1.6-8.1c0.2-3.1,0.3-6.5,0.3-10.1
    c0-3.3-0.1-6.4-0.3-9.4c-0.2-3-0.7-5.6-1.5-7.9c-0.8-2.3-2.1-4.1-3.7-5.4c-1.7-1.3-4-2-6.9-2c-2.8,0-5,0.6-6.6,1.9
    c-1.7,1.2-2.9,3-3.8,5.2c-0.9,2.2-1.4,4.9-1.7,8c-0.3,3.1-0.4,6.5-0.4,10.2C169.7,34.1,170,38.1,170.4,41.3z"/>
</g>
<g enable-background="new    ">
  <path d="M220.3,4.1L240,37.5h0.1V5.1h-5.4v-1h11.8v1H241v49h-1.6l-26.5-45h-0.1v44h5.4v1h-11.8v-1h5.4v-48h-5.4v-1
    H220.3z"/>
</g>
<g enable-background="new    ">
  <path d="M6.8,58.6h1v5.1c0,0.9-0.1,1.6-0.3,2.1c-0.2,0.5-0.5,0.9-1,1.3c-0.5,0.3-1.1,0.5-1.8,0.5
    c-0.7,0-1.3-0.1-1.8-0.4c-0.5-0.3-0.8-0.7-1-1.2c-0.2-0.5-0.3-1.3-0.3-2.2v-5.1h1v5.1c0,0.8,0.1,1.3,0.2,1.7
    C3,65.7,3.2,66,3.5,66.2c0.3,0.2,0.7,0.3,1.1,0.3c0.8,0,1.3-0.2,1.6-0.6c0.3-0.4,0.5-1.1,0.5-2.2V58.6z"/>
  <path d="M11.2,67.4v-8.8h1.1l4.1,6.9v-6.9h1v8.8h-1.1l-4.1-6.9v6.9H11.2z"/>
  <path d="M20.9,67.4v-8.8h1v8.8H20.9z"/>
  <path d="M27.7,67.4l-3-8.8h1.1l2,6.4c0.2,0.5,0.3,1,0.4,1.4c0.1-0.5,0.3-1,0.4-1.4l2.1-6.4h1.1l-3.1,8.8H27.7z"/>
  <path d="M34.5,67.4v-8.8h5.7v1h-4.6v2.7h4.3v1h-4.3v3h4.8v1H34.5z"/>
</g>
<g enable-background="new    ">
  <path d="M43.6,67.4v-8.8h3.5c0.7,0,1.2,0.1,1.6,0.2c0.4,0.2,0.7,0.4,0.9,0.8c0.2,0.4,0.3,0.8,0.3,1.3
    c0,0.6-0.2,1.2-0.5,1.6c-0.4,0.4-0.9,0.7-1.7,0.8c0.3,0.1,0.5,0.3,0.6,0.4c0.3,0.3,0.6,0.7,0.9,1.2l1.4,2.4h-1.3l-1-1.8
    c-0.3-0.5-0.6-0.9-0.7-1.2c-0.2-0.3-0.4-0.5-0.5-0.6c-0.2-0.1-0.3-0.2-0.5-0.2c-0.1,0-0.3,0-0.6,0h-1.2v3.9H43.6z M44.7,62.5h2.2
    c0.5,0,0.8-0.1,1.1-0.2c0.3-0.1,0.5-0.3,0.6-0.5c0.1-0.2,0.2-0.5,0.2-0.8c0-0.4-0.1-0.8-0.4-1c-0.3-0.3-0.7-0.4-1.3-0.4h-2.5V62.5z
    "/>
</g>
<g enable-background="new    ">
  <path d="M52.9,64.6l1-0.1c0,0.4,0.2,0.8,0.3,1.1c0.2,0.3,0.4,0.5,0.8,0.7s0.8,0.3,1.2,0.3c0.4,0,0.7-0.1,1.1-0.2
    c0.3-0.1,0.5-0.3,0.7-0.5c0.1-0.2,0.2-0.5,0.2-0.8c0-0.3-0.1-0.5-0.2-0.7s-0.4-0.4-0.7-0.5c-0.2-0.1-0.7-0.2-1.4-0.4
    c-0.7-0.2-1.2-0.4-1.5-0.6c-0.4-0.2-0.7-0.5-0.8-0.8s-0.3-0.7-0.3-1.1c0-0.4,0.1-0.9,0.3-1.2c0.2-0.4,0.6-0.7,1-0.9
    c0.4-0.2,0.9-0.3,1.4-0.3c0.6,0,1.1,0.1,1.5,0.3c0.4,0.2,0.8,0.5,1,0.9c0.2,0.4,0.4,0.9,0.4,1.4l-1,0.1c-0.1-0.6-0.2-1-0.5-1.3
    c-0.3-0.3-0.8-0.4-1.4-0.4c-0.6,0-1.1,0.1-1.4,0.4s-0.4,0.6-0.4,0.9c0,0.3,0.1,0.6,0.3,0.8c0.2,0.2,0.7,0.4,1.6,0.6
    c0.8,0.2,1.4,0.4,1.7,0.6c0.5,0.2,0.8,0.5,1,0.9c0.2,0.4,0.3,0.8,0.3,1.3c0,0.5-0.1,0.9-0.4,1.3c-0.2,0.4-0.6,0.7-1,1
    c-0.4,0.2-1,0.3-1.5,0.3c-0.7,0-1.3-0.1-1.8-0.3c-0.5-0.2-0.9-0.6-1.1-1.1C53,65.7,52.9,65.2,52.9,64.6z"/>
</g>
<g enable-background="new    ">
  <path d="M62.3,67.4v-8.8h1v8.8H62.3z"/>
</g>
<g enable-background="new    ">
  <path d="M69.1,67.4v-7.8h-2.6v-1h6.2v1h-2.6v7.8H69.1z"/>
</g>
<path d="M78.5,67.4v-3.7l-3-5.1h1.3l1.5,2.7c0.3,0.5,0.6,1,0.8,1.5c0.2-0.5,0.5-1,0.9-1.6l1.5-2.6h1.2l-3.1,5.1v3.7
  H78.5z"/>
<path d="M91.4,63.1c0-1.5,0.3-2.6,1-3.4c0.7-0.8,1.6-1.2,2.7-1.2c0.7,0,1.4,0.2,2,0.6c0.6,0.4,1,0.9,1.3,1.6
  c0.3,0.7,0.5,1.5,0.5,2.4c0,0.9-0.2,1.7-0.5,2.4c-0.3,0.7-0.8,1.2-1.4,1.6c-0.6,0.4-1.2,0.5-1.9,0.5c-0.7,0-1.4-0.2-2-0.6
  c-0.6-0.4-1-0.9-1.3-1.6C91.6,64.6,91.4,63.9,91.4,63.1z M92.5,63.1c0,1.1,0.3,1.9,0.8,2.5c0.5,0.6,1.1,0.9,1.9,0.9
  c0.8,0,1.4-0.3,1.9-0.9c0.5-0.6,0.8-1.5,0.8-2.6c0-0.7-0.1-1.3-0.3-1.9c-0.2-0.5-0.5-1-0.9-1.2c-0.4-0.3-0.9-0.4-1.4-0.4
  c-0.7,0-1.4,0.3-1.9,0.9C92.8,60.9,92.5,61.8,92.5,63.1z"/>
<path d="M102,67.4v-8.8h5.3v1H103v2.7h3.7v1H103v4H102z"/>
<g>
  <g enable-background="new    ">
    <path d="M115.8,67.4v-8.8h2.7c0.6,0,1.1,0,1.4,0.1c0.5,0.1,0.8,0.3,1.2,0.6c0.4,0.4,0.7,0.9,0.9,1.5
      c0.2,0.6,0.3,1.3,0.3,2.1c0,0.7-0.1,1.3-0.2,1.8c-0.1,0.5-0.3,0.9-0.5,1.3c-0.2,0.3-0.5,0.6-0.7,0.8c-0.3,0.2-0.6,0.3-0.9,0.4
      c-0.4,0.1-0.8,0.2-1.3,0.2H115.8z M116.8,66.4h1.7c0.5,0,0.9-0.1,1.2-0.2c0.3-0.1,0.5-0.3,0.7-0.5c0.2-0.3,0.4-0.6,0.6-1.1
      c0.1-0.5,0.2-1,0.2-1.7c0-0.9-0.1-1.6-0.4-2.1c-0.3-0.5-0.6-0.8-1-1c-0.3-0.1-0.7-0.2-1.3-0.2h-1.7V66.4z"/>
  </g>
  <g enable-background="new    ">
    <path d="M124.5,67.4l3-8.8h1.1l3.2,8.8h-1.2l-0.9-2.7h-3.3l-0.9,2.7H124.5z M126.8,63.8h2.7l-0.8-2.4
      c-0.3-0.7-0.4-1.4-0.6-1.8c-0.1,0.6-0.2,1.1-0.4,1.7L126.8,63.8z"/>
  </g>
  <g enable-background="new    ">
    <path d="M136.4,67.4v-3.7l-3-5.1h1.3l1.5,2.7c0.3,0.5,0.6,1,0.8,1.5c0.2-0.5,0.5-1,0.9-1.6l1.5-2.6h1.2l-3.1,5.1
      v3.7H136.4z"/>
  </g>
  <g enable-background="new    ">
    <path d="M145.7,67.4v-7.8h-2.6v-1h6.2v1h-2.6v7.8H145.7z"/>
  </g>
  <path d="M152.3,63.1c0-1.5,0.3-2.6,1-3.4c0.7-0.8,1.6-1.2,2.7-1.2c0.7,0,1.4,0.2,2,0.6c0.6,0.4,1,0.9,1.3,1.6
    c0.3,0.7,0.5,1.5,0.5,2.4c0,0.9-0.2,1.7-0.5,2.4c-0.3,0.7-0.8,1.2-1.4,1.6c-0.6,0.4-1.2,0.5-1.9,0.5c-0.7,0-1.4-0.2-2-0.6
    c-0.6-0.4-1-0.9-1.3-1.6C152.4,64.6,152.3,63.9,152.3,63.1z M153.3,63.1c0,1.1,0.3,1.9,0.8,2.5c0.5,0.6,1.1,0.9,1.9,0.9
    c0.8,0,1.4-0.3,1.9-0.9c0.5-0.6,0.8-1.5,0.8-2.6c0-0.7-0.1-1.3-0.3-1.9c-0.2-0.5-0.5-1-0.9-1.2c-0.4-0.3-0.9-0.4-1.4-0.4
    c-0.7,0-1.4,0.3-1.9,0.9C153.6,60.9,153.3,61.8,153.3,63.1z"/>
  <path d="M162.8,67.4v-8.8h1.1l4.1,6.9v-6.9h1v8.8h-1.1l-4.1-6.9v6.9H162.8z"/>
</g>
<path d="M179.4,67.4v-8.8h1.6l1.9,6.2c0.2,0.6,0.3,1,0.4,1.3c0.1-0.3,0.2-0.8,0.4-1.4l1.9-6.1h1.4v8.8h-1V60
  l-2.3,7.4h-0.9l-2.3-7.5v7.5H179.4z"/>
<g enable-background="new    ">
  <path d="M189.8,67.4l3-8.8h1.1l3.2,8.8H196l-0.9-2.7h-3.3l-0.9,2.7H189.8z M192.1,63.8h2.7l-0.8-2.4
    c-0.3-0.7-0.4-1.4-0.6-1.8c-0.1,0.6-0.2,1.1-0.4,1.7L192.1,63.8z"/>
</g>
<g enable-background="new    ">
  <path d="M203.9,64v-1l3.3,0v3.3c-0.5,0.5-1,0.8-1.6,1c-0.5,0.2-1.1,0.3-1.7,0.3c-0.8,0-1.5-0.2-2.1-0.6
    c-0.6-0.4-1.1-0.9-1.4-1.6c-0.3-0.7-0.5-1.5-0.5-2.4c0-0.9,0.2-1.7,0.5-2.4c0.3-0.7,0.8-1.3,1.4-1.7c0.6-0.4,1.3-0.5,2.1-0.5
    c0.6,0,1.1,0.1,1.5,0.3c0.5,0.2,0.8,0.5,1.1,0.9c0.3,0.4,0.5,0.9,0.6,1.4l-0.9,0.3c-0.1-0.4-0.3-0.8-0.4-1.1
    c-0.2-0.3-0.4-0.5-0.8-0.6s-0.7-0.2-1.1-0.2c-0.5,0-0.9,0.1-1.2,0.2c-0.3,0.2-0.6,0.4-0.8,0.6c-0.2,0.3-0.4,0.6-0.5,0.9
    c-0.2,0.5-0.3,1.1-0.3,1.8c0,0.8,0.1,1.4,0.4,2c0.2,0.5,0.6,0.9,1.1,1.2c0.5,0.3,0.9,0.4,1.5,0.4c0.5,0,0.9-0.1,1.3-0.3
    c0.4-0.2,0.8-0.4,1-0.6V64H203.9z"/>
</g>
<g enable-background="new    ">
  <path d="M209.4,67.4l3-8.8h1.1l3.2,8.8h-1.2l-0.9-2.7h-3.3l-0.9,2.7H209.4z M211.7,63.8h2.7l-0.8-2.4
    c-0.3-0.7-0.4-1.4-0.6-1.8c-0.1,0.6-0.2,1.1-0.4,1.7L211.7,63.8z"/>
</g>
<g enable-background="new    ">
  <path d="M219.4,67.4v-1.1l4-5.7c0.3-0.4,0.6-0.8,0.8-1h-4.4v-1h5.6v1l-4.4,6.1l-0.5,0.6h5v1H219.4z"/>
</g>
<g enable-background="new    ">
  <path d="M229.4,67.4v-8.8h1v8.8H229.4z"/>
  <path d="M233.9,67.4v-8.8h1.1l4.1,6.9v-6.9h1v8.8H239l-4.1-6.9v6.9H233.9z"/>
</g>
<g enable-background="new    ">
  <path d="M244.3,67.4v-8.8h5.7v1h-4.6v2.7h4.3v1h-4.3v3h4.8v1H244.3z"/>
</g>
<g>
</g>
<g>
</g>
<g>
</g>
<g>
</g>
<g>
</g>
<g>
</g>
</svg>
