<svg xmlns="http://www.w3.org/2000/svg" xmlns:xlink="http://www.w3.org/1999/xlink"><defs><symbol viewBox="0 0 65 65" id="tmp-fuse-logo"><path class="tmp-cfi-logo-path" d="M39.88 29.592a6.362 6.362 0 0 1 2.344-5.434q3.208-2.365 11.63-2.365v-8.94c-15.39 0-23.423 5.585-23.423 16.755l.086 5.154c-.002.302.014.777.014.93 0 4.673-.419 9.773-3.603 13.476a14.967 14.967 0 0 1-9.936 4.649c-.262.024-3.205.235-3.205.16l.047-5.91.087-10.987c.04-5.084.208-10.212 2.062-15.024a16.132 16.132 0 0 1 4.473-6.647 17.198 17.198 0 0 1 10.039-4.036c1.673-.114 3.35-.167 5.026-.239L40.876.688s-14.35-1.715-24.56 5.223c-10.101 6.87-12.799 14.5-13.32 20.899-.523 6.397 0 37.486 0 37.486 2.83 0 5.66.04 8.488.081a53.105 53.105 0 0 0 7.824-.18 26.544 26.544 0 0 0 9.48-3.1c.237-.134.472-.271.7-.42 3.634-2.378 6.981-5.734 8.33-9.944a51.194 51.194 0 0 0 1.912-10.71l.15-.09h8.983v-8.939H39.88zM52.523 40.578V64.5h9.643V36.068l-9.643 4.51z" /></symbol></defs></svg>