<svg xmlns="http://www.w3.org/2000/svg" xmlns:xlink="http://www.w3.org/1999/xlink"><defs><symbol viewBox="0 0 66 66" id="arrow-l"><path d="M33.22,3.45,22.65,14.79,33.88,25.23H1V40.78H33.87L22.65,51.2,33.22,62.55,65,33Zm-3.5,48L46.59,35.78H6V30.22H46.6L29.72,14.54l3.75-4L57.66,33,33.47,55.49Z" /></symbol><symbol viewBox="0 0 34 34" id="arrow-m"><path d="M17.1,2.22,11.82,7.89l5.61,5.22H1v7.78H17.43l-5.61,5.22,5.28,5.67L33,17Zm-1.75,24,8.44-7.84H3.48V15.61H23.8L15.35,7.76l1.88-2L29.33,17,17.23,28.25Z" /></symbol><symbol viewBox="0 0 22 22" id="caret-s"><polygon points="2.83 4.78 1.04 6.44 11.04 17.2 21.04 6.44 19.25 4.78 11.04 13.61 2.83 4.78" /></symbol><symbol viewBox="0 0 22 22" id="clock-s"><path d="M11,1A10,10,0,1,0,21,11,10,10,0,0,0,11,1Zm.8,10.38L6.86,15.64A5.72,5.72,0,0,1,5.8,14.45l4.41-3.83V4.81a5.16,5.16,0,0,1,.8-.08,5.42,5.42,0,0,1,.8.08Z" /></symbol><symbol viewBox="0 0 14 14" id="clock-xs"><path d="M7,1a6,6,0,1,0,6,6A6,6,0,0,0,7,1Zm.48,6.22-3,2.57a3.67,3.67,0,0,1-.64-.72L6.52,6.78V3.3a3.91,3.91,0,0,1,.48,0,3.91,3.91,0,0,1,.48,0Z" /></symbol><symbol viewBox="0 0 22 22" id="donate-s"><path d="M14.72,10.74a6.4,6.4,0,0,0-2.38-1.3l-.75-.23h-.1c-1.9-.49-1.9-1.12-1.9-1.68a1.52,1.52,0,0,1,1.56-1.38h.18a3.39,3.39,0,0,1,2,.58l1.21.87L16.13,5,15,4.27a6.17,6.17,0,0,0-2.3-1V1h-3V3.4A4.38,4.38,0,0,0,6.57,7.54a4.2,4.2,0,0,0,1.12,3,6.08,6.08,0,0,0,2.47,1.41l.8.23c2.09.56,2.09,1.34,2.09,1.67a1.77,1.77,0,0,1-1.72,1.72h-.19a4.73,4.73,0,0,1-2.5-.6l-1.17-.7-1.6,2.51,1.23.75a6.89,6.89,0,0,0,2.63.93V21h3V18.28a4.63,4.63,0,0,0,3.32-4.45,4.18,4.18,0,0,0-1.33-3.08Z" /></symbol><symbol viewBox="0 0 14 14" id="donate-xs"><path d="M9.23,6.85a4,4,0,0,0-1.42-.79l-.46-.13H7.29c-1.14-.3-1.14-.67-1.14-1a.91.91,0,0,1,.94-.83H7.2a2,2,0,0,1,1.19.35L9.12,5l1-1.53L9.42,3A3.75,3.75,0,0,0,8,2.37V1H6.24V2.44a2.63,2.63,0,0,0-1.9,2.49A2.49,2.49,0,0,0,5,6.71a3.67,3.67,0,0,0,1.48.85L7,7.7c1.25.33,1.25.8,1.25,1a1.06,1.06,0,0,1-1,1H7.08a2.83,2.83,0,0,1-1.49-.36L4.88,9l-1,1.51.74.44a4,4,0,0,0,1.58.56V13H8V11.37A2.79,2.79,0,0,0,10,8.7a2.52,2.52,0,0,0-.8-1.85Z" /></symbol><symbol viewBox="0 0 22 22" id="download-s"><path d="M12.75,1.06V8h3.44L11,13.57,5.81,8H9.25V1.06a10.05,10.05,0,1,0,3.5,0Z" /></symbol><symbol viewBox="0 0 22 22" id="email-s"><polygon points="20.27 3.73 11.02 12.09 1.73 3.73 1 3.73 1 18.17 21 18.17 21 3.73 20.27 3.73" /><polygon points="17.88 3.73 4.13 3.73 11.02 9.93 17.88 3.73" /></symbol><symbol viewBox="0 0 14 14" id="email-xs"><polygon points="12.56 2.67 7.01 7.68 1.44 2.67 1 2.67 1 11.33 13 11.33 13 2.67 12.56 2.67" /><polygon points="11.13 2.67 2.88 2.67 7.01 6.39 11.13 2.67" /></symbol><symbol viewBox="0 0 22 22" id="facebook-s"><path d="M11,1A10,10,0,1,0,21,11,10,10,0,0,0,11,1Zm2.5,6.67H12.37c-.44,0-.54.18-.54.64v1H13.5L13.32,11H11.83v5.83H9.33V11H7.67V9.33H9.33V7.41c0-1.47.78-2.24,2.53-2.24H13.5Z" /></symbol><symbol viewBox="0 0 22 22" id="instagram-s"><path d="M15.38,7.07V8.13a.45.45,0,0,1-.45.45H13.87a.45.45,0,0,1-.45-.45V7.07a.45.45,0,0,1,.45-.45h1.06A.46.46,0,0,1,15.38,7.07ZM11,13.24A2.24,2.24,0,1,0,8.76,11,2.24,2.24,0,0,0,11,13.24Zm3.55-2.74a4,4,0,0,1,0,.5,3.59,3.59,0,0,1-7.18,0,4,4,0,0,1,0-.5,2.46,2.46,0,0,1,.1-.47H6.62v4.9a.45.45,0,0,0,.45.45h7.86a.45.45,0,0,0,.44-.45V10h-.92A3.56,3.56,0,0,1,14.55,10.5ZM21,11A10,10,0,1,1,11,1,10,10,0,0,1,21,11ZM16.83,6.51a1.34,1.34,0,0,0-1.34-1.34h-9A1.34,1.34,0,0,0,5.17,6.51v9a1.34,1.34,0,0,0,1.34,1.34h9a1.34,1.34,0,0,0,1.34-1.34Z" /></symbol><symbol viewBox="0 0 22 22" id="like-s"><path d="M11,4.76s-.06,0-.08,0c-.65-2.42-4-3.57-6.18-2.84A6.06,6.06,0,0,0,1,7.73c.12,3.57,2.67,7,5.19,9.28a18,18,0,0,0,2.22,1.78c.35.24,2.21,1.67,2.59,1.49.38.18,2.24-1.25,2.59-1.49A18,18,0,0,0,15.81,17c2.52-2.33,5.07-5.71,5.19-9.28a6.06,6.06,0,0,0-3.77-5.81c-2.17-.73-5.53.42-6.18,2.84,0,0-.07,0-.08,0" /></symbol><symbol viewBox="0 0 14 14" id="like-xs"><path d="M7,3.26s0,0,0,0C6.58,1.81,4.56,1.12,3.26,1.55A3.65,3.65,0,0,0,1,5c.07,2.14,1.6,4.17,3.11,5.57a14,14,0,0,0,1.34,1.07c.2.14,1.32,1,1.55.89.23.11,1.35-.75,1.55-.89a14,14,0,0,0,1.34-1.07C11.4,9.21,12.93,7.18,13,5a3.65,3.65,0,0,0-2.26-3.49C9.44,1.12,7.42,1.81,7,3.26c0,0,0,0,0,0" /></symbol><symbol viewBox="0 0 66 66" id="menu-l"><path d="M65,40.42H1V26.16H65ZM5.12,36.3H60.86v-6H5.12Z" /><path d="M65,16.12H1V1.87H65ZM5.12,12H60.86V6H5.12Z" /><path d="M65,64.13H1V49.88H65ZM5.12,60H60.86V54H5.12Z" /></symbol><symbol viewBox="0 0 34 34" id="menu-m"><path d="M33,20.71H1V13.58H33ZM3.06,18.65H30.94v-3H3.06Z" /><path d="M33,8.56H1V1.43H33ZM3.06,6.5H30.94v-3H3.06Z" /><path d="M33,32.57H1V25.44H33ZM3.06,30.51H30.94v-3H3.06Z" /></symbol><symbol viewBox="0 0 22 22" id="notes-s"><polygon points="14.82 1.97 14.82 5.93 18.1 5.93 14.82 1.97" /><polygon points="13.22 7.53 13.22 1 3.24 1 3.24 21 9.26 21 9.26 15.58 5.84 15.58 11 10.06 16.16 15.59 12.74 15.58 12.74 21 18.76 21 18.76 7.53 13.22 7.53" /></symbol><symbol viewBox="0 0 14 14" id="notes-xs"><polygon points="9.29 1.58 9.29 3.96 11.26 3.96 9.29 1.58" /><polygon points="8.33 4.92 8.33 1 2.34 1 2.34 13 5.96 13 5.96 9.75 3.9 9.75 7 6.44 10.1 9.76 8.04 9.75 8.04 13 11.66 13 11.66 4.92 8.33 4.92" /></symbol><symbol viewBox="0 0 22 22" id="phone-s"><path d="M20.65,16.3l-4.13-1.84a.57.57,0,0,0-.72.23l-1.64,2.7a.58.58,0,0,1-.68.25,15.3,15.3,0,0,1-5.54-3.58A15.3,15.3,0,0,1,4.36,8.52a.58.58,0,0,1,.25-.68L7.31,6.2a.58.58,0,0,0,.23-.72L5.7,1.35A.56.56,0,0,0,5.13,1C3,1.29,1.53,3.78,1.23,5.09c-.83,3.62.62,8.15,4.08,11.6s8,4.91,11.6,4.08c1.31-.3,3.8-1.79,4.09-3.9A.56.56,0,0,0,20.65,16.3Z" /></symbol><symbol viewBox="0 0 14 14" id="phone-xs"><path d="M12.79,10.18l-2.48-1.1a.34.34,0,0,0-.43.13l-1,1.62a.34.34,0,0,1-.41.15A9.19,9.19,0,0,1,5.16,8.84,9.19,9.19,0,0,1,3,5.51a.34.34,0,0,1,.15-.41l1.62-1a.34.34,0,0,0,.13-.43L3.82,1.21A.33.33,0,0,0,3.48,1,3.39,3.39,0,0,0,1.14,3.46a7.81,7.81,0,0,0,2.44,7,7.81,7.81,0,0,0,7,2.44A3.39,3.39,0,0,0,13,10.52.33.33,0,0,0,12.79,10.18Z" /></symbol><symbol viewBox="0 0 66 66" id="play-l"><path d="M23.43,13,45,33,23.43,53V13M18.21,1V65L52.62,33,18.21,1Z" /></symbol><symbol viewBox="0 0 34 34" id="play-m"><path d="M14.24,7,25,17,14.24,27V7M11.63,1V33l17.2-16L11.63,1Z" /></symbol><symbol viewBox="0 0 22 22" id="search-s"><path d="M21,19.88l-8.17-8.16a6.61,6.61,0,1,0-5.19,2.55,6.58,6.58,0,0,0,4.08-1.44L19.88,21ZM7.64,12.73a5.1,5.1,0,1,1,5.09-5.09A5.09,5.09,0,0,1,7.64,12.73Z" /></symbol><symbol viewBox="0 0 14 14" id="search-xs"><path d="M13,12.33,8.1,7.43a4,4,0,1,0-.67.67l4.9,4.9ZM5,8A3.06,3.06,0,1,1,8,5,3.06,3.06,0,0,1,5,8Z" /></symbol><symbol viewBox="0 0 22 22" id="share-s"><path d="M11,1A10,10,0,1,0,21,11,10,10,0,0,0,11,1ZM9.62,11a2.54,2.54,0,0,1-.12.73l2.35,1.56A2.41,2.41,0,1,1,11,15.12a2.2,2.2,0,0,1,.13-.73L8.76,12.83a2.38,2.38,0,0,1-1.56.58,2.42,2.42,0,1,1,0-4.84,2.38,2.38,0,0,1,1.56.58l2.36-1.56A2.24,2.24,0,0,1,11,6.86a2.44,2.44,0,1,1,.86,1.84L9.5,10.26A2.48,2.48,0,0,1,9.62,11Z" /></symbol><symbol viewBox="0 0 22 22" id="twitter-s"><path d="M11,1A10,10,0,1,0,21,11,10,10,0,0,0,11,1Zm5.05,8a6.8,6.8,0,0,1-10.47,6,4.79,4.79,0,0,0,3.54-1,2.39,2.39,0,0,1-2.23-1.66,2.45,2.45,0,0,0,1.08,0A2.39,2.39,0,0,1,6.05,10a2.33,2.33,0,0,0,1.08.3,2.41,2.41,0,0,1-.74-3.2,6.81,6.81,0,0,0,4.94,2.51,2.4,2.4,0,0,1,4.08-2.19,4.52,4.52,0,0,0,1.52-.58,2.42,2.42,0,0,1-1.06,1.33,4.86,4.86,0,0,0,1.38-.38A4.88,4.88,0,0,1,16.05,9Z" /></symbol><symbol viewBox="0 0 251.8 69.4" id="udm-logo">
<g enable-background="new    ">
  <path d="M5.3,5.1v-1h5.4c2,0,4,0,6-0.1c2-0.1,4-0.1,6-0.1c1.8,0,3.6,0.1,5.6,0.4c2,0.3,3.9,0.8,5.8,1.5
    c1.9,0.7,3.8,1.7,5.5,2.9c1.7,1.2,3.3,2.8,4.6,4.6c1.3,1.9,2.4,4.1,3.2,6.7c0.8,2.6,1.2,5.6,1.2,9.1c0,3.4-0.4,6.4-1.2,9
    c-0.8,2.6-1.8,4.8-3.2,6.7c-1.3,1.9-2.8,3.4-4.5,4.6c-1.7,1.2-3.4,2.2-5.3,2.9c-1.8,0.7-3.6,1.2-5.4,1.5c-1.8,0.3-3.4,0.4-5,0.4
    c-2.2,0-4.5,0-6.7-0.1c-2.2,0-4.5-0.1-6.7-0.1H5.3v-1h5.4v-48H5.3z M22.4,53.3c2.6,0,4.7-0.4,6.5-1.1c1.8-0.7,3.3-1.7,4.6-2.9
    c1.2-1.2,2.2-2.7,2.9-4.2c0.7-1.6,1.3-3.3,1.7-5c0.4-1.8,0.6-3.5,0.7-5.3c0.1-1.8,0.2-3.4,0.2-4.9c0-3.8-0.2-7.2-0.6-10.3
    c-0.4-3.1-1.2-5.7-2.3-7.9c-1.2-2.2-2.8-3.8-4.9-5c-2.1-1.2-4.9-1.8-8.3-1.8c-0.8,0-1.5,0-2.1,0c-0.6,0-1.1,0.1-1.5,0.2v48
    C20.4,53.2,21.5,53.3,22.4,53.3z" />
</g>
<g enable-background="new    ">
  <path d="M49.4,53.1L67,2.1h1.6l18.6,51h5.1v1H72.4v-1h5.5l-6.8-18.8H56.9l-6.5,18.8h5.2v1H44.5v-1H49.4z M57.2,33.3
    h13.6l-7-19.2L57.2,33.3z" />
</g>
<g enable-background="new    ">
  <path d="M100.9,4.1v1h-4.7l12,24.5l10.8-24.5H114v-1h11.3v1h-5.1l-11.4,25.8v22.2h5.5v1H94.8v-1h5.4V33.5L86.5,5.1
    h-4.6v-1H100.9z" />
</g>
<g enable-background="new    ">
  <path d="M134,5.1c-1.5,0-2.8,0.2-3.9,0.5c-1.1,0.4-2.2,1-3.1,1.8c-0.9,0.9-1.7,2.1-2.4,3.6
    c-0.7,1.5-1.4,3.5-1.9,5.9H122V4.1h37v12.8h-0.8c-0.6-2.4-1.2-4.4-1.9-5.9c-0.7-1.5-1.5-2.7-2.4-3.6c-0.9-0.9-1.9-1.5-3.1-1.8
    c-1.1-0.4-2.4-0.5-3.9-0.5h-2.1v48h5.4v1h-19.4v-1h5.4v-48H134z" />
</g>
<g enable-background="new    ">
  <path d="M162.2,18.4c1.4-3.2,3.1-6,5.2-8.3c2.1-2.3,4.5-4.1,7.1-5.3c2.6-1.2,5.2-1.9,7.7-1.9c2.7,0,5.4,0.6,8,1.8
    c2.7,1.2,5,2.9,7.1,5.2c2.1,2.2,3.7,5,5,8.2c1.3,3.2,1.9,6.8,1.9,10.8c0,3.5-0.6,6.8-1.8,10c-1.2,3.2-2.8,5.9-4.8,8.3
    c-2,2.4-4.4,4.3-7,5.7c-2.7,1.4-5.5,2.1-8.4,2.1c-2.9,0-5.7-0.7-8.4-2c-2.7-1.3-5-3.2-7-5.5c-2-2.3-3.6-5-4.9-8.2
    c-1.2-3.1-1.8-6.5-1.8-10.2C160.1,25.2,160.8,21.6,162.2,18.4z M170.4,41.3c0.5,3.2,1.2,5.8,2.2,7.7c1,1.9,2.3,3.2,3.9,4
    c1.6,0.7,3.5,1.1,5.7,1.1c2.9,0,5.2-0.6,6.8-1.9c1.7-1.3,2.9-3.1,3.7-5.3c0.8-2.3,1.3-5,1.6-8.1c0.2-3.1,0.3-6.5,0.3-10.1
    c0-3.3-0.1-6.4-0.3-9.4c-0.2-3-0.7-5.6-1.5-7.9c-0.8-2.3-2.1-4.1-3.7-5.4c-1.7-1.3-4-2-6.9-2c-2.8,0-5,0.6-6.6,1.9
    c-1.7,1.2-2.9,3-3.8,5.2c-0.9,2.2-1.4,4.9-1.7,8c-0.3,3.1-0.4,6.5-0.4,10.2C169.7,34.1,170,38.1,170.4,41.3z" />
</g>
<g enable-background="new    ">
  <path d="M220.3,4.1L240,37.5h0.1V5.1h-5.4v-1h11.8v1H241v49h-1.6l-26.5-45h-0.1v44h5.4v1h-11.8v-1h5.4v-48h-5.4v-1
    H220.3z" />
</g>
<g enable-background="new    ">
  <path d="M6.8,58.6h1v5.1c0,0.9-0.1,1.6-0.3,2.1c-0.2,0.5-0.5,0.9-1,1.3c-0.5,0.3-1.1,0.5-1.8,0.5
    c-0.7,0-1.3-0.1-1.8-0.4c-0.5-0.3-0.8-0.7-1-1.2c-0.2-0.5-0.3-1.3-0.3-2.2v-5.1h1v5.1c0,0.8,0.1,1.3,0.2,1.7
    C3,65.7,3.2,66,3.5,66.2c0.3,0.2,0.7,0.3,1.1,0.3c0.8,0,1.3-0.2,1.6-0.6c0.3-0.4,0.5-1.1,0.5-2.2V58.6z" />
  <path d="M11.2,67.4v-8.8h1.1l4.1,6.9v-6.9h1v8.8h-1.1l-4.1-6.9v6.9H11.2z" />
  <path d="M20.9,67.4v-8.8h1v8.8H20.9z" />
  <path d="M27.7,67.4l-3-8.8h1.1l2,6.4c0.2,0.5,0.3,1,0.4,1.4c0.1-0.5,0.3-1,0.4-1.4l2.1-6.4h1.1l-3.1,8.8H27.7z" />
  <path d="M34.5,67.4v-8.8h5.7v1h-4.6v2.7h4.3v1h-4.3v3h4.8v1H34.5z" />
</g>
<g enable-background="new    ">
  <path d="M43.6,67.4v-8.8h3.5c0.7,0,1.2,0.1,1.6,0.2c0.4,0.2,0.7,0.4,0.9,0.8c0.2,0.4,0.3,0.8,0.3,1.3
    c0,0.6-0.2,1.2-0.5,1.6c-0.4,0.4-0.9,0.7-1.7,0.8c0.3,0.1,0.5,0.3,0.6,0.4c0.3,0.3,0.6,0.7,0.9,1.2l1.4,2.4h-1.3l-1-1.8
    c-0.3-0.5-0.6-0.9-0.7-1.2c-0.2-0.3-0.4-0.5-0.5-0.6c-0.2-0.1-0.3-0.2-0.5-0.2c-0.1,0-0.3,0-0.6,0h-1.2v3.9H43.6z M44.7,62.5h2.2
    c0.5,0,0.8-0.1,1.1-0.2c0.3-0.1,0.5-0.3,0.6-0.5c0.1-0.2,0.2-0.5,0.2-0.8c0-0.4-0.1-0.8-0.4-1c-0.3-0.3-0.7-0.4-1.3-0.4h-2.5V62.5z
    " />
</g>
<g enable-background="new    ">
  <path d="M52.9,64.6l1-0.1c0,0.4,0.2,0.8,0.3,1.1c0.2,0.3,0.4,0.5,0.8,0.7s0.8,0.3,1.2,0.3c0.4,0,0.7-0.1,1.1-0.2
    c0.3-0.1,0.5-0.3,0.7-0.5c0.1-0.2,0.2-0.5,0.2-0.8c0-0.3-0.1-0.5-0.2-0.7s-0.4-0.4-0.7-0.5c-0.2-0.1-0.7-0.2-1.4-0.4
    c-0.7-0.2-1.2-0.4-1.5-0.6c-0.4-0.2-0.7-0.5-0.8-0.8s-0.3-0.7-0.3-1.1c0-0.4,0.1-0.9,0.3-1.2c0.2-0.4,0.6-0.7,1-0.9
    c0.4-0.2,0.9-0.3,1.4-0.3c0.6,0,1.1,0.1,1.5,0.3c0.4,0.2,0.8,0.5,1,0.9c0.2,0.4,0.4,0.9,0.4,1.4l-1,0.1c-0.1-0.6-0.2-1-0.5-1.3
    c-0.3-0.3-0.8-0.4-1.4-0.4c-0.6,0-1.1,0.1-1.4,0.4s-0.4,0.6-0.4,0.9c0,0.3,0.1,0.6,0.3,0.8c0.2,0.2,0.7,0.4,1.6,0.6
    c0.8,0.2,1.4,0.4,1.7,0.6c0.5,0.2,0.8,0.5,1,0.9c0.2,0.4,0.3,0.8,0.3,1.3c0,0.5-0.1,0.9-0.4,1.3c-0.2,0.4-0.6,0.7-1,1
    c-0.4,0.2-1,0.3-1.5,0.3c-0.7,0-1.3-0.1-1.8-0.3c-0.5-0.2-0.9-0.6-1.1-1.1C53,65.7,52.9,65.2,52.9,64.6z" />
</g>
<g enable-background="new    ">
  <path d="M62.3,67.4v-8.8h1v8.8H62.3z" />
</g>
<g enable-background="new    ">
  <path d="M69.1,67.4v-7.8h-2.6v-1h6.2v1h-2.6v7.8H69.1z" />
</g>
<path d="M78.5,67.4v-3.7l-3-5.1h1.3l1.5,2.7c0.3,0.5,0.6,1,0.8,1.5c0.2-0.5,0.5-1,0.9-1.6l1.5-2.6h1.2l-3.1,5.1v3.7
  H78.5z" />
<path d="M91.4,63.1c0-1.5,0.3-2.6,1-3.4c0.7-0.8,1.6-1.2,2.7-1.2c0.7,0,1.4,0.2,2,0.6c0.6,0.4,1,0.9,1.3,1.6
  c0.3,0.7,0.5,1.5,0.5,2.4c0,0.9-0.2,1.7-0.5,2.4c-0.3,0.7-0.8,1.2-1.4,1.6c-0.6,0.4-1.2,0.5-1.9,0.5c-0.7,0-1.4-0.2-2-0.6
  c-0.6-0.4-1-0.9-1.3-1.6C91.6,64.6,91.4,63.9,91.4,63.1z M92.5,63.1c0,1.1,0.3,1.9,0.8,2.5c0.5,0.6,1.1,0.9,1.9,0.9
  c0.8,0,1.4-0.3,1.9-0.9c0.5-0.6,0.8-1.5,0.8-2.6c0-0.7-0.1-1.3-0.3-1.9c-0.2-0.5-0.5-1-0.9-1.2c-0.4-0.3-0.9-0.4-1.4-0.4
  c-0.7,0-1.4,0.3-1.9,0.9C92.8,60.9,92.5,61.8,92.5,63.1z" />
<path d="M102,67.4v-8.8h5.3v1H103v2.7h3.7v1H103v4H102z" />
<g>
  <g enable-background="new    ">
    <path d="M115.8,67.4v-8.8h2.7c0.6,0,1.1,0,1.4,0.1c0.5,0.1,0.8,0.3,1.2,0.6c0.4,0.4,0.7,0.9,0.9,1.5
      c0.2,0.6,0.3,1.3,0.3,2.1c0,0.7-0.1,1.3-0.2,1.8c-0.1,0.5-0.3,0.9-0.5,1.3c-0.2,0.3-0.5,0.6-0.7,0.8c-0.3,0.2-0.6,0.3-0.9,0.4
      c-0.4,0.1-0.8,0.2-1.3,0.2H115.8z M116.8,66.4h1.7c0.5,0,0.9-0.1,1.2-0.2c0.3-0.1,0.5-0.3,0.7-0.5c0.2-0.3,0.4-0.6,0.6-1.1
      c0.1-0.5,0.2-1,0.2-1.7c0-0.9-0.1-1.6-0.4-2.1c-0.3-0.5-0.6-0.8-1-1c-0.3-0.1-0.7-0.2-1.3-0.2h-1.7V66.4z" />
  </g>
  <g enable-background="new    ">
    <path d="M124.5,67.4l3-8.8h1.1l3.2,8.8h-1.2l-0.9-2.7h-3.3l-0.9,2.7H124.5z M126.8,63.8h2.7l-0.8-2.4
      c-0.3-0.7-0.4-1.4-0.6-1.8c-0.1,0.6-0.2,1.1-0.4,1.7L126.8,63.8z" />
  </g>
  <g enable-background="new    ">
    <path d="M136.4,67.4v-3.7l-3-5.1h1.3l1.5,2.7c0.3,0.5,0.6,1,0.8,1.5c0.2-0.5,0.5-1,0.9-1.6l1.5-2.6h1.2l-3.1,5.1
      v3.7H136.4z" />
  </g>
  <g enable-background="new    ">
    <path d="M145.7,67.4v-7.8h-2.6v-1h6.2v1h-2.6v7.8H145.7z" />
  </g>
  <path d="M152.3,63.1c0-1.5,0.3-2.6,1-3.4c0.7-0.8,1.6-1.2,2.7-1.2c0.7,0,1.4,0.2,2,0.6c0.6,0.4,1,0.9,1.3,1.6
    c0.3,0.7,0.5,1.5,0.5,2.4c0,0.9-0.2,1.7-0.5,2.4c-0.3,0.7-0.8,1.2-1.4,1.6c-0.6,0.4-1.2,0.5-1.9,0.5c-0.7,0-1.4-0.2-2-0.6
    c-0.6-0.4-1-0.9-1.3-1.6C152.4,64.6,152.3,63.9,152.3,63.1z M153.3,63.1c0,1.1,0.3,1.9,0.8,2.5c0.5,0.6,1.1,0.9,1.9,0.9
    c0.8,0,1.4-0.3,1.9-0.9c0.5-0.6,0.8-1.5,0.8-2.6c0-0.7-0.1-1.3-0.3-1.9c-0.2-0.5-0.5-1-0.9-1.2c-0.4-0.3-0.9-0.4-1.4-0.4
    c-0.7,0-1.4,0.3-1.9,0.9C153.6,60.9,153.3,61.8,153.3,63.1z" />
  <path d="M162.8,67.4v-8.8h1.1l4.1,6.9v-6.9h1v8.8h-1.1l-4.1-6.9v6.9H162.8z" />
</g>
<path d="M179.4,67.4v-8.8h1.6l1.9,6.2c0.2,0.6,0.3,1,0.4,1.3c0.1-0.3,0.2-0.8,0.4-1.4l1.9-6.1h1.4v8.8h-1V60
  l-2.3,7.4h-0.9l-2.3-7.5v7.5H179.4z" />
<g enable-background="new    ">
  <path d="M189.8,67.4l3-8.8h1.1l3.2,8.8H196l-0.9-2.7h-3.3l-0.9,2.7H189.8z M192.1,63.8h2.7l-0.8-2.4
    c-0.3-0.7-0.4-1.4-0.6-1.8c-0.1,0.6-0.2,1.1-0.4,1.7L192.1,63.8z" />
</g>
<g enable-background="new    ">
  <path d="M203.9,64v-1l3.3,0v3.3c-0.5,0.5-1,0.8-1.6,1c-0.5,0.2-1.1,0.3-1.7,0.3c-0.8,0-1.5-0.2-2.1-0.6
    c-0.6-0.4-1.1-0.9-1.4-1.6c-0.3-0.7-0.5-1.5-0.5-2.4c0-0.9,0.2-1.7,0.5-2.4c0.3-0.7,0.8-1.3,1.4-1.7c0.6-0.4,1.3-0.5,2.1-0.5
    c0.6,0,1.1,0.1,1.5,0.3c0.5,0.2,0.8,0.5,1.1,0.9c0.3,0.4,0.5,0.9,0.6,1.4l-0.9,0.3c-0.1-0.4-0.3-0.8-0.4-1.1
    c-0.2-0.3-0.4-0.5-0.8-0.6s-0.7-0.2-1.1-0.2c-0.5,0-0.9,0.1-1.2,0.2c-0.3,0.2-0.6,0.4-0.8,0.6c-0.2,0.3-0.4,0.6-0.5,0.9
    c-0.2,0.5-0.3,1.1-0.3,1.8c0,0.8,0.1,1.4,0.4,2c0.2,0.5,0.6,0.9,1.1,1.2c0.5,0.3,0.9,0.4,1.5,0.4c0.5,0,0.9-0.1,1.3-0.3
    c0.4-0.2,0.8-0.4,1-0.6V64H203.9z" />
</g>
<g enable-background="new    ">
  <path d="M209.4,67.4l3-8.8h1.1l3.2,8.8h-1.2l-0.9-2.7h-3.3l-0.9,2.7H209.4z M211.7,63.8h2.7l-0.8-2.4
    c-0.3-0.7-0.4-1.4-0.6-1.8c-0.1,0.6-0.2,1.1-0.4,1.7L211.7,63.8z" />
</g>
<g enable-background="new    ">
  <path d="M219.4,67.4v-1.1l4-5.7c0.3-0.4,0.6-0.8,0.8-1h-4.4v-1h5.6v1l-4.4,6.1l-0.5,0.6h5v1H219.4z" />
</g>
<g enable-background="new    ">
  <path d="M229.4,67.4v-8.8h1v8.8H229.4z" />
  <path d="M233.9,67.4v-8.8h1.1l4.1,6.9v-6.9h1v8.8H239l-4.1-6.9v6.9H233.9z" />
</g>
<g enable-background="new    ">
  <path d="M244.3,67.4v-8.8h5.7v1h-4.6v2.7h4.3v1h-4.3v3h4.8v1H244.3z" />
</g>
<g>
</g>
<g>
</g>
<g>
</g>
<g>
</g>
<g>
</g>
<g>
</g>
</symbol><symbol viewBox="0 0 22 22" id="user-s"><path d="M11,1.92a5.15,5.15,0,1,0,5.15,5.14A5.15,5.15,0,0,0,11,1.92Z" /><path d="M16.2,11.31a6.66,6.66,0,0,1-10.4,0C2.93,12.19,1,13.77,1,15.58V21H21V15.58C21,13.77,19.07,12.19,16.2,11.31Z" /></symbol><symbol viewBox="0 0 14 14" id="user-xs"><path d="M7,1.57a3.09,3.09,0,1,0,3.09,3.08A3.09,3.09,0,0,0,7,1.57Z" /><path d="M10.12,7.2a4,4,0,0,1-6.24,0C2.16,7.73,1,8.68,1,9.76V13H13V9.76C13,8.68,11.84,7.73,10.12,7.2Z" /></symbol><symbol viewBox="0 0 22 22" id="view-s"><path d="M11,4.42C6.64,4.42,1,8.58,1,11s5.64,6.58,10,6.58,10-4,10-6.58S15.36,4.42,11,4.42Zm0,12.15A5.57,5.57,0,1,1,16.57,11,5.57,5.57,0,0,1,11,16.57Z" /><path d="M13,10.65a1.92,1.92,0,0,1-1.61-3c-.12,0-.23,0-.35,0A3.4,3.4,0,1,0,14.4,11a3.58,3.58,0,0,0-.12-.87A2,2,0,0,1,13,10.65Z" /></symbol><symbol viewBox="0 0 14 14" id="view-xs"><path d="M7,2.89C4.26,2.89.76,5.47.76,7S4.26,11.06,7,11.06,13.18,8.56,13.18,7,9.68,2.89,7,2.89Zm0,7.54A3.46,3.46,0,1,1,10.43,7,3.46,3.46,0,0,1,7,10.43Z" /><path d="M8.19,6.76A1.22,1.22,0,0,1,7,5.54a1.16,1.16,0,0,1,.22-.66L7,4.86A2.12,2.12,0,1,0,9.08,7,1.91,1.91,0,0,0,9,6.43,1.19,1.19,0,0,1,8.19,6.76Z" /></symbol><symbol viewBox="0 0 22 22" id="youtube-s"><path d="M11,1A10,10,0,1,0,21,11,10,10,0,0,0,11,1Zm5.77,12.16A1.82,1.82,0,0,1,14.94,15H7.05a1.82,1.82,0,0,1-1.82-1.82V8.84A1.82,1.82,0,0,1,7.05,7h7.89a1.82,1.82,0,0,1,1.83,1.82Z" /><polygon points="9.93 14.04 14.1 11 9.93 7.96 9.93 14.04" /></symbol></defs></svg>