<svg xmlns="http://www.w3.org/2000/svg" xmlns:xlink="http://www.w3.org/1999/xlink"><defs><symbol viewBox="0 0 66 66" id="arrow-l"><path d="M33.22 3.45L22.65 14.79l11.23 10.44H1v15.55h32.87L22.65 51.2l10.57 11.35L65 33zm-3.5 48l16.87-15.67H6v-5.56h40.6L29.72 14.54l3.75-4L57.66 33 33.47 55.49z" /></symbol><symbol viewBox="0 0 34 34" id="arrow-m"><path d="M17.1 2.22l-5.28 5.67 5.61 5.22H1v7.78h16.43l-5.61 5.22 5.28 5.67L33 17zm-1.75 24l8.44-7.84H3.48v-2.77H23.8l-8.45-7.85 1.88-2L29.33 17l-12.1 11.25z" /></symbol><symbol viewBox="0 0 22 22" id="caret-s"><path d="M2.83 4.78L1.04 6.44l10 10.76 10-10.76-1.79-1.66-8.21 8.83-8.21-8.83z" /></symbol><symbol viewBox="0 0 22 22" id="clock-s"><path d="M11 1a10 10 0 1 0 10 10A10 10 0 0 0 11 1zm.8 10.38l-4.94 4.26a5.72 5.72 0 0 1-1.06-1.19l4.41-3.83V4.81a5.16 5.16 0 0 1 .8-.08 5.42 5.42 0 0 1 .8.08z" /></symbol><symbol viewBox="0 0 14 14" id="clock-xs"><path d="M7 1a6 6 0 1 0 6 6 6 6 0 0 0-6-6zm.48 6.22l-3 2.57a3.67 3.67 0 0 1-.64-.72l2.68-2.29V3.3a3.91 3.91 0 0 1 .48 0 3.91 3.91 0 0 1 .48 0z" /></symbol><symbol viewBox="0 0 22 22" id="donate-s"><path d="M14.72 10.74a6.4 6.4 0 0 0-2.38-1.3l-.75-.23h-.1c-1.9-.49-1.9-1.12-1.9-1.68a1.52 1.52 0 0 1 1.56-1.38h.18a3.39 3.39 0 0 1 2 .58l1.21.87L16.13 5 15 4.27a6.17 6.17 0 0 0-2.3-1V1h-3v2.4a4.38 4.38 0 0 0-3.13 4.14 4.2 4.2 0 0 0 1.12 3 6.08 6.08 0 0 0 2.47 1.41l.8.23c2.09.56 2.09 1.34 2.09 1.67a1.77 1.77 0 0 1-1.72 1.72h-.19a4.73 4.73 0 0 1-2.5-.6l-1.17-.7-1.6 2.51 1.23.75a6.89 6.89 0 0 0 2.63.93V21h3v-2.72a4.63 4.63 0 0 0 3.32-4.45 4.18 4.18 0 0 0-1.33-3.08z" /></symbol><symbol viewBox="0 0 14 14" id="donate-xs"><path d="M9.23 6.85a4 4 0 0 0-1.42-.79l-.46-.13h-.06c-1.14-.3-1.14-.67-1.14-1a.91.91 0 0 1 .94-.83h.11a2 2 0 0 1 1.19.35l.73.55 1-1.53-.7-.47A3.75 3.75 0 0 0 8 2.37V1H6.24v1.44a2.63 2.63 0 0 0-1.9 2.49A2.49 2.49 0 0 0 5 6.71a3.67 3.67 0 0 0 1.48.85L7 7.7c1.25.33 1.25.8 1.25 1a1.06 1.06 0 0 1-1 1h-.17a2.83 2.83 0 0 1-1.49-.36L4.88 9l-1 1.51.74.44a4 4 0 0 0 1.58.56V13H8v-1.63a2.79 2.79 0 0 0 2-2.67 2.52 2.52 0 0 0-.8-1.85z" /></symbol><symbol viewBox="0 0 22 22" id="download-s"><path d="M12.75 1.06V8h3.44L11 13.57 5.81 8h3.44V1.06a10.05 10.05 0 1 0 3.5 0z" /></symbol><symbol viewBox="0 0 22 22" id="email-s"><path d="M20.27 3.73l-9.25 8.36-9.29-8.36H1v14.44h20V3.73h-.73z" /><path d="M17.88 3.73H4.13l6.89 6.2 6.86-6.2z" /></symbol><symbol viewBox="0 0 14 14" id="email-xs"><path d="M12.56 2.67L7.01 7.68 1.44 2.67H1v8.66h12V2.67h-.44z" /><path d="M11.13 2.67H2.88l4.13 3.72 4.12-3.72z" /></symbol><symbol viewBox="0 0 22 22" id="facebook-s"><path d="M11 1a10 10 0 1 0 10 10A10 10 0 0 0 11 1zm2.5 6.67h-1.13c-.44 0-.54.18-.54.64v1h1.67L13.32 11h-1.49v5.83h-2.5V11H7.67V9.33h1.66V7.41c0-1.47.78-2.24 2.53-2.24h1.64z" /></symbol><symbol viewBox="0 0 22 22" id="instagram-s"><path d="M15.38 7.07v1.06a.45.45 0 0 1-.45.45h-1.06a.45.45 0 0 1-.45-.45V7.07a.45.45 0 0 1 .45-.45h1.06a.46.46 0 0 1 .45.45zM11 13.24A2.24 2.24 0 1 0 8.76 11 2.24 2.24 0 0 0 11 13.24zm3.55-2.74a4 4 0 0 1 0 .5 3.59 3.59 0 0 1-7.18 0 4 4 0 0 1 0-.5 2.46 2.46 0 0 1 .1-.47h-.85v4.9a.45.45 0 0 0 .45.45h7.86a.45.45 0 0 0 .44-.45V10h-.92a3.56 3.56 0 0 1 .1.5zM21 11A10 10 0 1 1 11 1a10 10 0 0 1 10 10zm-4.17-4.49a1.34 1.34 0 0 0-1.34-1.34h-9a1.34 1.34 0 0 0-1.32 1.34v9a1.34 1.34 0 0 0 1.34 1.34h9a1.34 1.34 0 0 0 1.34-1.34z" /></symbol><symbol viewBox="0 0 22 22" id="like-s"><path d="M11 4.76h-.08c-.65-2.42-4-3.57-6.18-2.84A6.06 6.06 0 0 0 1 7.73c.12 3.57 2.67 7 5.19 9.28a18 18 0 0 0 2.22 1.78c.35.24 2.21 1.67 2.59 1.49.38.18 2.24-1.25 2.59-1.49A18 18 0 0 0 15.81 17c2.52-2.33 5.07-5.71 5.19-9.28a6.06 6.06 0 0 0-3.77-5.81c-2.17-.73-5.53.42-6.18 2.84h-.08" /></symbol><symbol viewBox="0 0 14 14" id="like-xs"><path d="M7 3.26c-.42-1.45-2.44-2.14-3.74-1.71A3.65 3.65 0 0 0 1 5c.07 2.14 1.6 4.17 3.11 5.57a14 14 0 0 0 1.34 1.07c.2.14 1.32 1 1.55.89.23.11 1.35-.75 1.55-.89a14 14 0 0 0 1.34-1.07C11.4 9.21 12.93 7.18 13 5a3.65 3.65 0 0 0-2.26-3.49c-1.3-.39-3.32.3-3.74 1.75" /></symbol><symbol viewBox="0 0 66 66" id="menu-l"><path d="M65 40.42H1V26.16h64zM5.12 36.3h55.74v-6H5.12zM65 16.12H1V1.87h64zM5.12 12h55.74V6H5.12zM65 64.13H1V49.88h64zM5.12 60h55.74v-6H5.12z" /></symbol><symbol viewBox="0 0 34 34" id="menu-m"><path d="M33 20.71H1v-7.13h32zM3.06 18.65h27.88v-3H3.06zM33 8.56H1V1.43h32zM3.06 6.5h27.88v-3H3.06zM33 32.57H1v-7.13h32zM3.06 30.51h27.88v-3H3.06z" /></symbol><symbol viewBox="0 0 22 22" id="notes-s"><path d="M14.82 1.97v3.96h3.28l-3.28-3.96z" /><path d="M13.22 7.53V1H3.24v20h6.02v-5.42H5.84L11 10.06l5.16 5.53-3.42-.01V21h6.02V7.53h-5.54z" /></symbol><symbol viewBox="0 0 14 14" id="notes-xs"><path d="M9.29 1.58v2.38h1.97L9.29 1.58z" /><path d="M8.33 4.92V1H2.34v12h3.62V9.75H3.9L7 6.44l3.1 3.32-2.06-.01V13h3.62V4.92H8.33z" /></symbol><symbol viewBox="0 0 22 22" id="phone-s"><path d="M20.65 16.3l-4.13-1.84a.57.57 0 0 0-.72.23l-1.64 2.7a.58.58 0 0 1-.68.25 15.3 15.3 0 0 1-5.54-3.58 15.3 15.3 0 0 1-3.58-5.54.58.58 0 0 1 .25-.68l2.7-1.64a.58.58 0 0 0 .23-.72L5.7 1.35A.56.56 0 0 0 5.13 1c-2.13.29-3.6 2.78-3.9 4.09-.83 3.62.62 8.15 4.08 11.6s8 4.91 11.6 4.08c1.31-.3 3.8-1.79 4.09-3.9a.56.56 0 0 0-.35-.57z" /></symbol><symbol viewBox="0 0 14 14" id="phone-xs"><path d="M12.79 10.18l-2.48-1.1a.34.34 0 0 0-.43.13l-1 1.62a.34.34 0 0 1-.41.15 9.19 9.19 0 0 1-3.31-2.14A9.19 9.19 0 0 1 3 5.51a.34.34 0 0 1 .15-.41l1.62-1a.34.34 0 0 0 .13-.43L3.82 1.21A.33.33 0 0 0 3.48 1a3.39 3.39 0 0 0-2.34 2.46 7.81 7.81 0 0 0 2.44 7 7.81 7.81 0 0 0 7 2.44A3.39 3.39 0 0 0 13 10.52a.33.33 0 0 0-.21-.34z" /></symbol><symbol viewBox="0 0 66 66" id="play-l"><path d="M23.43 13L45 33 23.43 53V13M18.21 1v64l34.41-32L18.21 1z" /></symbol><symbol viewBox="0 0 34 34" id="play-m"><path d="M14.24 7L25 17 14.24 27V7m-2.61-6v32l17.2-16-17.2-16z" /></symbol><symbol viewBox="0 0 22 22" id="search-s"><path d="M21 19.88l-8.17-8.16a6.61 6.61 0 1 0-5.19 2.55 6.58 6.58 0 0 0 4.08-1.44L19.88 21zM7.64 12.73a5.1 5.1 0 1 1 5.09-5.09 5.09 5.09 0 0 1-5.09 5.09z" /></symbol><symbol viewBox="0 0 14 14" id="search-xs"><path d="M13 12.33l-4.9-4.9a4 4 0 1 0-.67.67l4.9 4.9zM5 8a3.06 3.06 0 1 1 3-3 3.06 3.06 0 0 1-3 3z" /></symbol><symbol viewBox="0 0 22 22" id="share-s"><path d="M11 1a10 10 0 1 0 10 10A10 10 0 0 0 11 1zM9.62 11a2.54 2.54 0 0 1-.12.73l2.35 1.56a2.41 2.41 0 1 1-.85 1.83 2.2 2.2 0 0 1 .13-.73l-2.37-1.56a2.38 2.38 0 0 1-1.56.58 2.42 2.42 0 1 1 0-4.84 2.38 2.38 0 0 1 1.56.58l2.36-1.56a2.24 2.24 0 0 1-.12-.73 2.44 2.44 0 1 1 .86 1.84L9.5 10.26a2.48 2.48 0 0 1 .12.74z" /></symbol><symbol viewBox="0 0 22 22" id="twitter-s"><path d="M11 1a10 10 0 1 0 10 10A10 10 0 0 0 11 1zm5.05 8a6.8 6.8 0 0 1-10.47 6 4.79 4.79 0 0 0 3.54-1 2.39 2.39 0 0 1-2.23-1.66 2.45 2.45 0 0 0 1.08 0A2.39 2.39 0 0 1 6.05 10a2.33 2.33 0 0 0 1.08.3 2.41 2.41 0 0 1-.74-3.2 6.81 6.81 0 0 0 4.94 2.51 2.4 2.4 0 0 1 4.08-2.19 4.52 4.52 0 0 0 1.52-.58 2.42 2.42 0 0 1-1.06 1.33 4.86 4.86 0 0 0 1.38-.38A4.88 4.88 0 0 1 16.05 9z" /></symbol><symbol viewBox="0 0 22 22" id="user-s"><path d="M11 1.92a5.15 5.15 0 1 0 5.15 5.14A5.15 5.15 0 0 0 11 1.92z" /><path d="M16.2 11.31a6.66 6.66 0 0 1-10.4 0c-2.87.88-4.8 2.46-4.8 4.27V21h20v-5.42c0-1.81-1.93-3.39-4.8-4.27z" /></symbol><symbol viewBox="0 0 14 14" id="user-xs"><path d="M7 1.57a3.09 3.09 0 1 0 3.09 3.08A3.09 3.09 0 0 0 7 1.57z" /><path d="M10.12 7.2a4 4 0 0 1-6.24 0C2.16 7.73 1 8.68 1 9.76V13h12V9.76c0-1.08-1.16-2.03-2.88-2.56z" /></symbol><symbol viewBox="0 0 22 22" id="view-s"><path d="M11 4.42C6.64 4.42 1 8.58 1 11s5.64 6.58 10 6.58 10-4 10-6.58-5.64-6.58-10-6.58zm0 12.15A5.57 5.57 0 1 1 16.57 11 5.57 5.57 0 0 1 11 16.57z" /><path d="M13 10.65a1.92 1.92 0 0 1-1.61-3h-.35A3.4 3.4 0 1 0 14.4 11a3.58 3.58 0 0 0-.12-.87 2 2 0 0 1-1.28.52z" /></symbol><symbol viewBox="0 0 14 14" id="view-xs"><path d="M7 2.89C4.26 2.89.76 5.47.76 7s3.5 4.06 6.24 4.06 6.18-2.5 6.18-4.06S9.68 2.89 7 2.89zm0 7.54A3.46 3.46 0 1 1 10.43 7 3.46 3.46 0 0 1 7 10.43z" /><path d="M8.19 6.76A1.22 1.22 0 0 1 7 5.54a1.16 1.16 0 0 1 .22-.66L7 4.86A2.12 2.12 0 1 0 9.08 7 1.91 1.91 0 0 0 9 6.43a1.19 1.19 0 0 1-.81.33z" /></symbol><symbol viewBox="0 0 22 22" id="youtube-s"><path d="M11 1a10 10 0 1 0 10 10A10 10 0 0 0 11 1zm5.77 12.16A1.82 1.82 0 0 1 14.94 15H7.05a1.82 1.82 0 0 1-1.82-1.82V8.84A1.82 1.82 0 0 1 7.05 7h7.89a1.82 1.82 0 0 1 1.83 1.82z" /><path d="M9.93 14.04L14.1 11 9.93 7.96v6.08z" /></symbol></defs></svg>